<svg xmlns="http://www.w3.org/2000/svg" class="sm:w-6 sm:h-6 w-5 h-5 fill-[#37123C]" viewBox="0 0 24 24">
  <path d="M24 4.557c-.883.392-1.832.656-2.828.775 1.017-.609 1.798-1.574 2.165-2.723-.951.563-2.005.974-3.127 1.195-.896-.957-2.173-1.555-3.591-1.555-2.717 0-4.92 2.203-4.92 4.919 0 .386.043.762.127 1.124-4.087-.205-7.715-2.164-10.141-5.144-.424.729-.666 1.575-.666 2.476 0 1.709.87 3.218 2.188 4.099-.807-.026-1.566-.247-2.228-.616v.062c0 2.386 1.697 4.374 3.946 4.827-.413.112-.849.171-1.296.171-.317 0-.626-.031-.928-.087.627 1.956 2.444 3.379 4.599 3.419-1.685 1.32-3.808 2.106-6.115 2.106-.398 0-.79-.023-1.175-.068 2.179 1.397 4.768 2.212 7.548 2.212 9.057 0 14.01-7.502 14.01-14.01 0-.213-.005-.425-.014-.637.961-.693 1.796-1.56 2.457-2.549z"/>
</svg>
